<svg width="16" height="28" viewBox="0 0 16 28" fill="none" xmlns="http://www.w3.org/2000/svg">
<path d="M14.6432 1.2404C15.0154 1.61267 15.2244 2.11751 15.2244 2.6439C15.2244 3.17029 15.0154 3.67513 14.6432 4.0474L4.81674 13.8739L14.6432 23.7003C15.0048 24.0747 15.2049 24.5762 15.2004 25.0967C15.1959 25.6172 14.9871 26.1151 14.619 26.4831C14.251 26.8512 13.7531 27.06 13.2326 27.0645C12.7121 27.069 12.2106 26.8689 11.8362 26.5073L0.606247 15.2774C0.23409 14.9051 0.0250244 14.4002 0.0250244 13.8739C0.0250244 13.3475 0.23409 12.8426 0.606247 12.4704L11.8362 1.2404C12.2085 0.868246 12.7133 0.65918 13.2397 0.65918C13.7661 0.65918 14.2709 0.868246 14.6432 1.2404Z" fill="white"/>
</svg>
