<svg width="50" height="50" viewBox="0 0 50 50" fill="none" xmlns="http://www.w3.org/2000/svg">
<circle cx="25.2375" cy="25.0666" r="24.761" fill="#0E0E15"/>
<path fill-rule="evenodd" clip-rule="evenodd" d="M35.9758 19.6976V34.2709C35.9758 35.0846 35.6525 35.865 35.0772 36.4404C34.5018 37.0158 33.7214 37.339 32.9077 37.339H31.3737V35.805H32.9077C33.3146 35.805 33.7047 35.6434 33.9924 35.3557C34.2801 35.068 34.4417 34.6778 34.4417 34.2709V19.6976H31.3737C30.7634 19.6976 30.1781 19.4552 29.7466 19.0236C29.315 18.5921 29.0726 18.0068 29.0726 17.3965V14.3285H20.6354C20.2286 14.3285 19.8384 14.4901 19.5507 14.7778C19.263 15.0655 19.1014 15.4557 19.1014 15.8625V29.6688H17.5673V15.8625C17.5673 15.0488 17.8906 14.2684 18.466 13.6931C19.0413 13.1177 19.8217 12.7944 20.6354 12.7944H29.0726L35.9758 19.6976ZM16.9537 30.9728H14.4993V37.1074H15.7127V35.0487H16.9445C17.3843 35.0487 17.7586 34.9602 18.0674 34.7833C18.3794 34.6043 18.6161 34.362 18.7777 34.0562C18.9461 33.7363 19.0311 33.3791 19.0247 33.0176C19.0247 32.6341 18.9439 32.2879 18.7823 31.9791C18.6204 31.6738 18.3759 31.4202 18.0766 31.2474C17.7698 31.0633 17.3955 30.9717 16.9537 30.9728ZM17.7898 33.0176C17.795 33.2197 17.7502 33.42 17.6594 33.6006C17.578 33.7579 17.4506 33.8869 17.2943 33.9703C17.1156 34.0583 16.9181 34.1014 16.719 34.0961H15.7081V31.9392H16.7206C17.055 31.9392 17.3168 32.0318 17.506 32.2169C17.6952 32.404 17.7898 32.6709 17.7898 33.0176ZM19.6567 30.9728V37.1074H21.8964C22.5121 37.1074 23.0224 36.9862 23.4274 36.7438C23.8372 36.4986 24.1572 36.128 24.3401 35.6869C24.5406 35.2266 24.6408 34.6723 24.6408 34.024C24.6408 33.3797 24.5406 32.83 24.3401 32.3749C24.159 31.939 23.8421 31.5732 23.4366 31.3317C23.0316 31.0924 22.5177 30.9728 21.8949 30.9728H19.6567ZM20.8701 31.9622H21.7338C22.1132 31.9622 22.4246 32.0399 22.668 32.1954C22.9204 32.3618 23.1112 32.6065 23.2111 32.8918C23.3317 33.2007 23.3921 33.5857 23.3921 34.047C23.3968 34.3529 23.3618 34.6582 23.2878 34.9551C23.2348 35.1899 23.1323 35.4106 22.9871 35.6025C22.8536 35.7745 22.6768 35.9079 22.4747 35.9891C22.2379 36.0776 21.9865 36.1203 21.7338 36.1149H20.8701V31.9622ZM26.612 34.6667V37.1074H25.4001V30.9728H29.3089V31.9745H26.612V33.688H29.0757V34.6667H26.612Z" fill="white"/>
</svg>
