<svg width="24" height="22" viewBox="0 0 24 22" fill="none" xmlns="http://www.w3.org/2000/svg">
<path d="M22.1342 17.6116C22.607 17.6119 23.0615 17.794 23.4037 18.1202C23.7458 18.4464 23.9493 18.8918 23.972 19.364C23.9947 19.8362 23.8349 20.2991 23.5257 20.6566C23.2164 21.0142 22.7815 21.2391 22.3109 21.2847L22.1342 21.2933H2.49856C2.02581 21.2931 1.57127 21.111 1.22913 20.7847C0.886988 20.4585 0.683472 20.0131 0.660753 19.5409C0.638034 19.0687 0.797854 18.6059 1.1071 18.2483C1.41634 17.8907 1.85129 17.6658 2.32184 17.6202L2.49856 17.6116H22.1342ZM22.1342 9.02102C22.6224 9.02102 23.0907 9.21497 23.4359 9.56019C23.7811 9.90542 23.9751 10.3736 23.9751 10.8619C23.9751 11.3501 23.7811 11.8183 23.4359 12.1635C23.0907 12.5088 22.6224 12.7027 22.1342 12.7027H2.49856C2.01034 12.7027 1.54211 12.5088 1.19689 12.1635C0.85166 11.8183 0.657715 11.3501 0.657715 10.8619C0.657715 10.3736 0.85166 9.90542 1.19689 9.56019C1.54211 9.21497 2.01034 9.02102 2.49856 9.02102H22.1342ZM22.1342 0.43042C22.6224 0.43042 23.0907 0.624365 23.4359 0.969591C23.7811 1.31482 23.9751 1.78304 23.9751 2.27126C23.9751 2.75949 23.7811 3.22771 23.4359 3.57294C23.0907 3.91816 22.6224 4.11211 22.1342 4.11211H2.49856C2.01034 4.11211 1.54211 3.91816 1.19689 3.57294C0.85166 3.22771 0.657715 2.75949 0.657715 2.27126C0.657715 1.78304 0.85166 1.31482 1.19689 0.969591C1.54211 0.624365 2.01034 0.43042 2.49856 0.43042H22.1342Z" fill="white"/>
</svg>
