<svg width="25" height="26" viewBox="0 0 25 26" fill="none" xmlns="http://www.w3.org/2000/svg">
<path d="M15.3372 10.3176C15.2459 10.2264 15.1735 10.1181 15.1241 9.99894C15.0746 9.87975 15.0492 9.752 15.0492 9.62297C15.0492 9.49395 15.0746 9.36619 15.1241 9.24701C15.1735 9.12782 15.2459 9.01954 15.3372 8.92836L19.5527 4.71402H17.0136C16.7532 4.71402 16.5035 4.61058 16.3193 4.42646C16.1352 4.24234 16.0318 3.99262 16.0318 3.73223C16.0318 3.47184 16.1352 3.22212 16.3193 3.038C16.5035 2.85388 16.7532 2.75044 17.0136 2.75044H21.9225C22.1829 2.75044 22.4326 2.85388 22.6167 3.038C22.8009 3.22212 22.9043 3.47184 22.9043 3.73223V8.64118C22.9043 8.90157 22.8009 9.15129 22.6167 9.33541C22.4326 9.51953 22.1829 9.62297 21.9225 9.62297C21.6621 9.62297 21.4124 9.51953 21.2283 9.33541C21.0442 9.15129 20.9407 8.90157 20.9407 8.64118V6.10203L16.7264 10.3176C16.6352 10.4089 16.5269 10.4813 16.4077 10.5307C16.2886 10.5801 16.1608 10.6055 16.0318 10.6055C15.9028 10.6055 15.775 10.5801 15.6558 10.5307C15.5366 10.4813 15.4283 10.4089 15.3372 10.3176ZM23.6824 17.2883L17.9009 14.6976L17.8849 14.6902C17.5848 14.5619 17.2573 14.5103 16.9323 14.5403C16.6072 14.5703 16.2948 14.6809 16.0232 14.8621C15.9912 14.8832 15.9605 14.9061 15.9311 14.9308L12.9477 17.4773C11.0553 16.5581 9.10156 14.6191 8.18236 12.7512L10.7326 9.7187C10.7571 9.68802 10.7804 9.65734 10.8025 9.6242C10.9798 9.35335 11.0873 9.04288 11.1156 8.72043C11.1438 8.39797 11.0919 8.07353 10.9645 7.77598V7.76125L8.36645 1.96992C8.198 1.58121 7.90835 1.2574 7.54075 1.04684C7.17314 0.836272 6.74729 0.750241 6.32678 0.801588C4.66383 1.02041 3.13741 1.83709 2.03259 3.09909C0.927776 4.3611 0.320125 5.98212 0.323131 7.65939C0.323131 17.4037 8.25109 25.3316 17.9954 25.3316C19.6726 25.3346 21.2937 24.727 22.5557 23.6222C23.8177 22.5173 24.6343 20.9909 24.8532 19.328C24.9046 18.9076 24.8188 18.4819 24.6084 18.1143C24.3981 17.7467 24.0745 17.457 23.6861 17.2883H23.6824Z" fill="#CFCFCF"/>
</svg>
