<svg width="26" height="26" viewBox="0 0 26 26" fill="none" xmlns="http://www.w3.org/2000/svg">
<path d="M15.6867 15.089L18.4008 16.4437C18.2721 17.0865 17.9244 17.6648 17.417 18.0799C16.9096 18.495 16.2739 18.7212 15.6183 18.72C13.3657 18.7175 11.2061 17.8215 9.61331 16.2287C8.02051 14.6359 7.12457 12.4763 7.12207 10.2238C7.12189 9.56899 7.34859 8.93438 7.76361 8.42793C8.17862 7.92148 8.7563 7.57448 9.39835 7.44598L10.753 10.16L9.60013 11.8758C9.51398 12.005 9.46105 12.1535 9.44602 12.3081C9.43099 12.4627 9.45434 12.6186 9.51399 12.762C10.1894 14.3673 11.4665 15.6444 13.0718 16.3198C13.2156 16.3821 13.3727 16.4076 13.5289 16.394C13.685 16.3804 13.8353 16.3281 13.9662 16.2419L15.6867 15.089ZM25.0585 13.0558C25.059 15.1746 24.5109 17.2574 23.4676 19.1015C22.4242 20.9456 20.9213 22.4882 19.1049 23.5791C17.2885 24.67 15.2207 25.2721 13.1026 25.3267C10.9845 25.3814 8.88841 24.8867 7.01823 23.8909L3.00023 25.2302C2.66757 25.3411 2.31058 25.3572 1.96928 25.2767C1.62797 25.1961 1.31585 25.0221 1.06788 24.7742C0.819915 24.5262 0.645907 24.2141 0.565362 23.8728C0.484817 23.5315 0.500917 23.1745 0.611858 22.8418L1.95119 18.8238C1.07578 17.1779 0.586838 15.3543 0.521465 13.4912C0.456092 11.6282 0.81601 9.77473 1.5739 8.07155C2.33179 6.36837 3.46773 4.86024 4.8955 3.66162C6.32327 2.463 8.00534 1.6054 9.81403 1.15392C11.6227 0.702441 13.5105 0.668944 15.3341 1.05597C17.1577 1.443 18.8691 2.24038 20.3385 3.38759C21.8079 4.5348 22.9966 6.00169 23.8144 7.6769C24.6323 9.35212 25.0577 11.1916 25.0585 13.0558ZM20.3384 15.8879C20.3385 15.7125 20.2898 15.5406 20.1977 15.3913C20.1055 15.2421 19.9737 15.1215 19.8168 15.043L16.0407 13.155C15.8921 13.0809 15.7265 13.0473 15.5608 13.0577C15.395 13.0681 15.235 13.122 15.0967 13.214L13.3632 14.3704C12.5675 13.9329 11.9126 13.2781 11.4752 12.4823L12.6316 10.7489C12.7236 10.6106 12.7775 10.4505 12.7879 10.2848C12.7982 10.119 12.7647 9.95349 12.6906 9.80486L10.8026 6.02877C10.7243 5.87073 10.6034 5.73777 10.4534 5.64496C10.3034 5.55215 10.1305 5.5032 9.95414 5.50365C8.70229 5.50365 7.50171 6.00095 6.61652 6.88614C5.73132 7.77134 5.23403 8.97191 5.23403 10.2238C5.23715 12.9769 6.33221 15.6163 8.27895 17.5631C10.2257 19.5098 12.8652 20.6049 15.6183 20.608C16.2381 20.608 16.8519 20.4859 17.4246 20.2487C17.9973 20.0115 18.5176 19.6638 18.9559 19.2255C19.3942 18.7872 19.7419 18.2669 19.9791 17.6942C20.2163 17.1215 20.3384 16.5078 20.3384 15.8879Z" fill="#CFCFCF"/>
</svg>
